<?xml version="1.0" encoding="UTF-8" standalone="no"?>
<!DOCTYPE svg PUBLIC "-//W3C//DTD SVG 1.1//EN" "http://www.w3.org/Graphics/SVG/1.1/DTD/svg11.dtd">
<svg width="100%" height="100%" viewBox="0 0 500 118" version="1.1" xmlns="http://www.w3.org/2000/svg" xmlns:xlink="http://www.w3.org/1999/xlink" xml:space="preserve" xmlns:serif="http://www.serif.com/" style="fill-rule:evenodd;clip-rule:evenodd;stroke-linejoin:round;stroke-miterlimit:2;">
    <g transform="matrix(1,0,0,1,-11249,-5213)">
        <g id="Mesa-de-trabajo5" serif:id="Mesa de trabajo5" transform="matrix(1,0,0,0.884613,-0.66351,600.803)">
            <rect x="11249.7" y="5213.8" width="500" height="132.475" style="fill:none;"/>
            <clipPath id="_clip1">
                <rect x="11249.7" y="5213.8" width="500" height="132.475"/>
            </clipPath>
            <g clip-path="url(#_clip1)">
                <g transform="matrix(0.570818,0,0,0.645275,6194.23,1385.02)">
                    <g transform="matrix(4.6533,0,0,4.6533,3344.79,944.909)">
                        <path d="M1198.16,1089.28C1199.83,1088.24 1200.92,1086.55 1200.92,1084.36C1200.92,1080.78 1197.99,1078.35 1193.94,1078.35L1184.71,1078.35L1184.71,1101.29L1194.59,1101.29C1198.84,1101.29 1201.84,1098.76 1201.84,1094.95C1201.84,1092.32 1200.38,1090.26 1198.16,1089.28ZM1188.7,1081.62L1193.26,1081.62C1195.41,1081.62 1196.87,1082.77 1196.87,1084.66C1196.87,1086.68 1195.61,1087.86 1193.33,1087.86L1188.7,1087.86L1188.7,1081.62ZM1193.94,1098.02L1188.7,1098.02L1188.7,1091.1L1194.08,1091.1C1196.29,1091.1 1197.79,1092.45 1197.79,1094.54C1197.79,1096.7 1196.22,1098.02 1193.94,1098.02Z" style="fill:rgb(33,55,53);fill-rule:nonzero;"/>
                    </g>
                    <g transform="matrix(4.6533,0,0,4.6533,3339.68,944.909)">
                        <path d="M1212.36,1085.84C1207.76,1085.84 1204.53,1089.32 1204.53,1093.73C1204.53,1098.45 1207.87,1101.73 1212.74,1101.73C1215.08,1101.73 1216.92,1101.02 1218.66,1099.63L1217.09,1097.27C1216.04,1098.18 1214.81,1098.69 1213.08,1098.69C1210.62,1098.69 1208.72,1097.41 1208.24,1094.98L1219.14,1094.98C1219.2,1094.37 1219.27,1093.77 1219.27,1093.23C1219.27,1088.71 1216.65,1085.84 1212.36,1085.84ZM1212.29,1088.84C1214.23,1088.84 1215.66,1090.09 1215.77,1092.49L1208.28,1092.49C1208.68,1090.16 1210.28,1088.84 1212.29,1088.84Z" style="fill:rgb(33,55,53);fill-rule:nonzero;"/>
                    </g>
                    <g transform="matrix(4.6533,0,0,4.6533,3336.62,944.909)">
                        <path d="M1228.43,1085.98C1226.39,1085.98 1224.31,1086.52 1222.07,1087.53L1223.12,1090.33C1224.69,1089.58 1226.36,1089.11 1227.85,1089.11C1229.79,1089.11 1230.95,1089.89 1230.95,1091.44L1230.95,1092.11C1230.41,1092.08 1229.83,1092.05 1229.05,1092.05C1224.41,1092.05 1221.35,1093.93 1221.35,1097.38C1221.35,1100.04 1223.33,1101.59 1226.12,1101.59C1228.6,1101.59 1230.41,1100.61 1231.53,1099.03L1232.21,1101.29L1234.7,1101.29L1234.7,1091.57C1234.7,1087.93 1232.31,1085.98 1228.43,1085.98ZM1227.21,1098.83C1225.85,1098.83 1225.03,1098.18 1225.03,1097C1225.03,1095.35 1226.59,1094.41 1229.28,1094.41C1229.96,1094.41 1230.44,1094.44 1231.05,1094.51C1230.99,1097.24 1229.39,1098.83 1227.21,1098.83Z" style="fill:rgb(33,55,53);fill-rule:nonzero;"/>
                    </g>
                    <g transform="matrix(4.6533,0,0,4.6533,3329.47,944.909)">
                        <path d="M1246.48,1085.91C1244.5,1085.91 1242.97,1086.79 1242.09,1088.47L1241.37,1086.25L1238.85,1086.25L1238.85,1101.29L1242.56,1101.29L1242.56,1093.09C1242.56,1090.7 1244.03,1089.32 1246.17,1089.32C1246.95,1089.32 1247.57,1089.45 1248.14,1089.65L1249.1,1086.55C1248.38,1086.14 1247.53,1085.91 1246.48,1085.91Z" style="fill:rgb(33,55,53);fill-rule:nonzero;"/>
                    </g>
                    <g transform="matrix(4.6533,0,0,4.6533,3327.15,944.909)">
                        <path d="M1255.98,1101.62C1259.32,1101.62 1261.6,1099.87 1261.6,1097.07C1261.6,1094.58 1259.69,1093.33 1257.03,1092.35C1255.4,1091.78 1254.28,1091.2 1254.28,1090.22C1254.28,1089.28 1255.26,1088.94 1256.42,1088.94C1257.44,1088.94 1258.67,1089.25 1259.79,1089.82L1261.09,1087.36C1259.45,1086.41 1257.85,1086.01 1256.11,1086.01C1253.22,1086.01 1250.74,1087.46 1250.74,1090.22C1250.74,1092.69 1252.61,1093.93 1255.03,1094.85C1256.52,1095.42 1257.95,1095.96 1257.95,1097.07C1257.95,1098.02 1257.07,1098.62 1255.71,1098.62C1254.28,1098.62 1252.85,1098.18 1251.55,1097.38L1250.09,1099.97C1251.86,1101.09 1253.73,1101.62 1255.98,1101.62Z" style="fill:rgb(33,55,53);fill-rule:nonzero;"/>
                    </g>
                    <g transform="matrix(1.04309,0.455565,-0.455565,1.04309,9196.51,5518.76)">
                        <path d="M189.785,404.72C187.198,400.66 186.338,397.651 186.338,397.651C185.592,395.818 181.285,375.851 193.202,368.538C199.866,364.449 202.514,368.261 214.451,354.988C215.261,354.152 231.429,333.997 250.422,352.213C259.4,360.825 258.29,362.843 270.193,366.5C289.299,372.37 284.31,402.804 267.205,415.792C267.136,415.845 267.074,415.874 267.02,415.885C254.485,425.558 236.877,427.015 224.18,425.573C218.206,424.895 221.126,425.214 218.11,424.838C215.622,424.528 213.543,426.585 215.285,430.915C215.312,430.983 221.339,444.74 226.922,455.287C232.79,466.373 239.862,477.564 239.834,477.721C238.943,482.808 239.267,481.154 238.059,487.284L227.624,491.84C215.949,461.915 201.612,426.296 189.785,404.72ZM199.593,395.482C199.593,395.482 201.91,403.609 211.119,409.607C219.684,415.185 241.323,421.204 257.805,408.513C257.844,408.505 257.888,408.484 257.938,408.446C270.156,399.188 273.848,377.676 260.621,373.122C260.467,373.068 260.31,373.017 260.15,372.969C251.563,370.35 252.367,368.897 245.897,362.709C232.209,349.621 220.517,364.144 219.931,364.747C211.301,374.312 209.394,371.572 204.58,374.522C195.97,379.799 199.057,394.163 199.593,395.482Z" style="fill:rgb(200,166,130);stroke:rgb(200,166,130);stroke-width:1.54px;"/>
                    </g>
                    <g transform="matrix(1.02696,0.448518,-0.448518,1.02696,9199.49,5525.36)">
                        <path d="M224.437,328.388C223.01,310.784 241.695,309.298 243.337,324.315C245.106,340.496 227.437,347.304 224.437,328.388Z" style="fill:rgb(120,142,120);"/>
                    </g>
                    <g transform="matrix(1.02696,0.448518,-0.448518,1.02696,9199.13,5526.37)">
                        <path d="M246.971,332.842C250.994,316.808 263.314,322.073 265.026,330.959C267.76,345.156 253.833,353.866 248.4,343.15C245.874,338.168 246.918,333.525 246.971,332.842Z" style="fill:rgb(120,142,120);"/>
                    </g>
                    <g transform="matrix(1.02696,0.448518,-0.448518,1.02696,9199.02,5524.36)">
                        <path d="M220.77,336.519C218.678,357.593 198.029,345.879 202.903,329.906C206.447,318.292 220.249,321.68 220.749,334.681C220.773,335.293 220.747,335.907 220.77,336.519Z" style="fill:rgb(120,142,120);"/>
                    </g>
                    <g transform="matrix(1.02696,0.448518,-0.448518,1.02696,9196.7,5524.18)">
                        <path d="M186.78,343.169C197.409,331.294 207.423,353.772 199.261,361.195C190.492,369.171 179.963,353.555 186.78,343.169Z" style="fill:rgb(120,142,120);"/>
                    </g>
                    <g transform="matrix(1.02696,0.448518,-0.448518,1.02696,9199.1,5526.84)">
                        <path d="M228.431,307.641C228.553,306.939 229.27,302.805 230.859,299.081C233.243,293.493 237.59,294.234 237.561,296.598C237.41,308.937 240.669,309.372 239.665,310.499C239.326,310.88 234.661,307.479 229.375,310.114C227.392,311.102 228.303,308.684 228.431,307.641Z" style="fill:rgb(33,54,53);"/>
                    </g>
                    <g transform="matrix(0.886702,0.387263,-0.387263,0.886702,9206.99,5583.4)">
                        <path d="M214.806,316.539C214.858,317.277 215.295,318.171 213.833,317.737C209.982,316.595 206.17,319.305 205.619,319.696C203.739,321.033 205.238,314.434 207.649,309.891C212.195,301.322 214.979,303.445 215.011,303.479C215.354,303.85 215.383,304.387 214.612,307.464C213.535,311.757 214.719,315.709 214.806,316.539Z" style="fill:rgb(33,54,53);"/>
                    </g>
                    <g transform="matrix(-0.82718,-0.501982,-0.501982,0.82718,9655.04,5813.18)">
                        <path d="M214.806,316.539C214.858,317.277 215.295,318.171 213.833,317.737C209.982,316.595 206.17,319.305 205.619,319.696C203.739,321.033 205.238,314.434 207.649,309.891C212.195,301.322 214.979,303.445 215.011,303.479C215.354,303.85 215.383,304.387 214.612,307.464C213.535,311.757 214.719,315.709 214.806,316.539Z" style="fill:rgb(33,54,53);"/>
                    </g>
                    <g transform="matrix(-0.736102,-0.446711,-0.416162,0.685763,9618.35,5872.22)">
                        <path d="M214.806,316.539C214.858,317.277 215.295,318.171 213.833,317.737C209.982,316.595 206.17,319.305 205.619,319.696C203.739,321.033 205.238,314.434 207.649,309.891C212.195,301.322 214.979,303.445 215.011,303.479C215.354,303.85 215.383,304.387 214.612,307.464C213.535,311.757 214.719,315.709 214.806,316.539Z" style="fill:rgb(33,54,53);"/>
                    </g>
                    <g transform="matrix(1.02696,0.448518,-0.448518,1.02696,9195.51,5525.51)">
                        <path d="M188.572,327.587C190.034,325.656 192.113,324.623 192.214,325.469C192.532,328.133 192.284,328.658 193.64,331.318C194.732,333.46 195.176,334.881 192.741,335.024C188.117,335.296 185.672,339.399 185.59,337.661C185.274,330.951 187.892,328.573 188.572,327.587Z" style="fill:rgb(33,54,53);"/>
                    </g>
                    <g transform="matrix(4.35915,0,0,4.3183,7571.86,3410.37)">
                        <path d="M389.25,631.29C388.866,631.29 388.476,631.254 388.08,631.182C387.684,631.11 387.29,630.986 386.898,630.81L387.162,629.91C387.826,630.238 388.506,630.402 389.202,630.402C389.634,630.402 390.002,630.302 390.306,630.102C390.61,629.902 390.762,629.606 390.762,629.214C390.762,628.926 390.664,628.674 390.468,628.458C390.272,628.242 389.894,628.046 389.334,627.87L388.578,627.63C388.034,627.454 387.612,627.212 387.312,626.904C387.012,626.596 386.862,626.186 386.862,625.674C386.862,625.01 387.082,624.484 387.522,624.096C387.962,623.708 388.594,623.514 389.418,623.514C389.786,623.514 390.144,623.544 390.492,623.604C390.84,623.664 391.178,623.774 391.506,623.934L391.242,624.846C390.898,624.686 390.588,624.572 390.312,624.504C390.036,624.436 389.754,624.402 389.466,624.402C389.018,624.402 388.66,624.502 388.392,624.702C388.124,624.902 387.99,625.182 387.99,625.542C387.99,625.838 388.09,626.08 388.29,626.268C388.49,626.456 388.81,626.618 389.25,626.754L390.006,626.994C390.694,627.21 391.18,627.504 391.464,627.876C391.748,628.248 391.89,628.666 391.89,629.13C391.89,629.57 391.776,629.952 391.548,630.276C391.32,630.6 391.008,630.85 390.612,631.026C390.216,631.202 389.762,631.29 389.25,631.29Z" style="fill:rgb(33,55,53);fill-rule:nonzero;"/>
                    </g>
                    <g transform="matrix(4.35915,0,0,4.3183,7800.95,3410.37)">
                        <path d="M389.25,631.29C388.866,631.29 388.476,631.254 388.08,631.182C387.684,631.11 387.29,630.986 386.898,630.81L387.162,629.91C387.826,630.238 388.506,630.402 389.202,630.402C389.634,630.402 390.002,630.302 390.306,630.102C390.61,629.902 390.762,629.606 390.762,629.214C390.762,628.926 390.664,628.674 390.468,628.458C390.272,628.242 389.894,628.046 389.334,627.87L388.578,627.63C388.034,627.454 387.612,627.212 387.312,626.904C387.012,626.596 386.862,626.186 386.862,625.674C386.862,625.01 387.082,624.484 387.522,624.096C387.962,623.708 388.594,623.514 389.418,623.514C389.786,623.514 390.144,623.544 390.492,623.604C390.84,623.664 391.178,623.774 391.506,623.934L391.242,624.846C390.898,624.686 390.588,624.572 390.312,624.504C390.036,624.436 389.754,624.402 389.466,624.402C389.018,624.402 388.66,624.502 388.392,624.702C388.124,624.902 387.99,625.182 387.99,625.542C387.99,625.838 388.09,626.08 388.29,626.268C388.49,626.456 388.81,626.618 389.25,626.754L390.006,626.994C390.694,627.21 391.18,627.504 391.464,627.876C391.748,628.248 391.89,628.666 391.89,629.13C391.89,629.57 391.776,629.952 391.548,630.276C391.32,630.6 391.008,630.85 390.612,631.026C390.216,631.202 389.762,631.29 389.25,631.29Z" style="fill:rgb(33,55,53);fill-rule:nonzero;"/>
                    </g>
                    <g transform="matrix(4.35915,0,0,4.3183,7571.86,3410.37)">
                        <path d="M395.754,631.182L395.754,623.622L400.314,623.622L400.314,624.534L396.858,624.534L396.858,626.802L400.002,626.802L400.002,627.702L396.858,627.702L396.858,630.27L400.35,630.27L400.35,631.182L395.754,631.182Z" style="fill:rgb(33,55,53);fill-rule:nonzero;"/>
                    </g>
                    <g transform="matrix(4.35915,0,0,4.3183,7571.86,3410.37)">
                        <path d="M404.166,631.182L404.166,623.622L405.126,623.622L408.57,628.41C408.698,628.586 408.822,628.766 408.942,628.95C409.062,629.134 409.17,629.314 409.266,629.49L409.29,629.49C409.274,629.21 409.262,628.93 409.254,628.65C409.246,628.37 409.242,628.09 409.242,627.81L409.242,623.622L410.322,623.622L410.322,631.182L409.362,631.182L405.954,626.454C405.834,626.286 405.71,626.096 405.582,625.884C405.454,625.672 405.334,625.462 405.222,625.254L405.198,625.254C405.214,625.59 405.226,625.926 405.234,626.262C405.242,626.598 405.246,626.934 405.246,627.27L405.246,631.182L404.166,631.182Z" style="fill:rgb(33,55,53);fill-rule:nonzero;"/>
                    </g>
                    <g transform="matrix(4.35915,0,0,4.3183,7571.86,3410.37)">
                        <rect x="414.63" y="623.622" width="1.104" height="7.56" style="fill:rgb(33,55,53);fill-rule:nonzero;"/>
                    </g>
                    <g transform="matrix(4.35915,0,0,4.3183,7571.86,3410.37)">
                        <path d="M423.174,631.29C422.494,631.29 421.888,631.146 421.356,630.858C420.824,630.57 420.404,630.136 420.096,629.556C419.788,628.976 419.634,628.258 419.634,627.402C419.634,626.562 419.792,625.852 420.108,625.272C420.424,624.692 420.852,624.254 421.392,623.958C421.932,623.662 422.542,623.514 423.222,623.514C423.902,623.514 424.508,623.658 425.04,623.946C425.572,624.234 425.992,624.666 426.3,625.242C426.608,625.818 426.762,626.538 426.762,627.402C426.762,628.242 426.604,628.95 426.288,629.526C425.972,630.102 425.544,630.54 425.004,630.84C424.464,631.14 423.854,631.29 423.174,631.29ZM423.222,630.402C423.662,630.402 424.058,630.294 424.41,630.078C424.762,629.862 425.042,629.532 425.25,629.088C425.458,628.644 425.562,628.082 425.562,627.402C425.562,626.698 425.454,626.126 425.238,625.686C425.022,625.246 424.734,624.922 424.374,624.714C424.014,624.506 423.614,624.402 423.174,624.402C422.734,624.402 422.338,624.51 421.986,624.726C421.634,624.942 421.354,625.272 421.146,625.716C420.938,626.16 420.834,626.722 420.834,627.402C420.834,628.082 420.942,628.644 421.158,629.088C421.374,629.532 421.662,629.862 422.022,630.078C422.382,630.294 422.782,630.402 423.222,630.402Z" style="fill:rgb(33,55,53);fill-rule:nonzero;"/>
                    </g>
                    <g transform="matrix(4.35915,0,0,4.3183,7571.86,3410.37)">
                        <path d="M430.674,631.182L430.674,623.622L433.134,623.622C433.918,623.622 434.514,623.834 434.922,624.258C435.33,624.682 435.534,625.222 435.534,625.878C435.534,626.262 435.46,626.596 435.312,626.88C435.164,627.164 434.972,627.398 434.736,627.582C434.5,627.766 434.25,627.91 433.986,628.014L435.978,631.182L434.742,631.182L432.954,628.218L431.718,628.218L431.718,631.182L430.674,631.182ZM431.718,627.318L432.63,627.318C433.126,627.318 433.542,627.212 433.878,627C434.214,626.788 434.382,626.434 434.382,625.938C434.382,625.45 434.248,625.09 433.98,624.858C433.712,624.626 433.322,624.51 432.81,624.51L431.718,624.51L431.718,627.318Z" style="fill:rgb(33,55,53);fill-rule:nonzero;"/>
                    </g>
                    <g transform="matrix(4.35915,0,0,4.3183,7602.85,3410.37)">
                        <path d="M444.582,631.182L444.582,623.622L445.686,623.622L445.686,630.246L448.914,630.246L448.914,631.182L444.582,631.182Z" style="fill:rgb(33,55,53);fill-rule:nonzero;"/>
                    </g>
                    <g transform="matrix(4.35915,0,0,4.3183,7602.85,3410.37)">
                        <rect x="452.454" y="623.622" width="1.104" height="7.56" style="fill:rgb(33,55,53);fill-rule:nonzero;"/>
                    </g>
                    <g transform="matrix(4.35915,0,0,4.3183,7602.85,3410.37)">
                        <path d="M459.786,631.182L456.87,623.622L458.034,623.622L459.606,627.894C459.718,628.19 459.842,628.516 459.978,628.872C460.114,629.228 460.234,629.558 460.338,629.862L460.362,629.862C460.482,629.534 460.962,628.222 461.082,627.894L462.678,623.622L463.83,623.622L460.854,631.182L459.786,631.182Z" style="fill:rgb(33,55,53);fill-rule:nonzero;"/>
                    </g>
                    <g transform="matrix(4.35915,0,0,4.3183,7602.85,3410.37)">
                        <rect x="467.154" y="623.622" width="1.104" height="7.56" style="fill:rgb(33,55,53);fill-rule:nonzero;"/>
                    </g>
                    <g transform="matrix(4.35915,0,0,4.3183,7602.85,3410.37)">
                        <path d="M472.566,631.182L472.566,623.622L473.526,623.622L476.97,628.41C477.098,628.586 477.222,628.766 477.342,628.95C477.462,629.134 477.57,629.314 477.666,629.49L477.69,629.49C477.674,629.21 477.662,628.93 477.654,628.65C477.646,628.37 477.642,628.09 477.642,627.81L477.642,623.622L478.722,623.622L478.722,631.182L477.762,631.182L474.354,626.454C474.234,626.286 474.11,626.096 473.982,625.884C473.854,625.672 473.734,625.462 473.622,625.254L473.598,625.254C473.614,625.59 473.626,625.926 473.634,626.262C473.642,626.598 473.646,626.934 473.646,627.27L473.646,631.182L472.566,631.182Z" style="fill:rgb(33,55,53);fill-rule:nonzero;"/>
                    </g>
                    <g transform="matrix(4.35915,0,0,4.3183,7602.85,3410.37)">
                        <path d="M486.33,631.29C485.642,631.29 485.016,631.142 484.452,630.846C483.888,630.55 483.44,630.114 483.108,629.538C482.776,628.962 482.61,628.254 482.61,627.414C482.61,626.566 482.77,625.852 483.09,625.272C483.41,624.692 483.852,624.254 484.416,623.958C484.98,623.662 485.618,623.514 486.33,623.514C486.77,623.514 487.168,623.546 487.524,623.61C487.88,623.674 488.21,623.786 488.514,623.946L488.25,624.81C487.69,624.546 487.094,624.414 486.462,624.414C485.998,624.414 485.564,624.508 485.16,624.696C484.756,624.884 484.43,625.198 484.182,625.638C483.934,626.078 483.81,626.67 483.81,627.414C483.81,628.374 484.03,629.108 484.47,629.616C484.91,630.124 485.53,630.378 486.33,630.378C486.906,630.378 487.382,630.306 487.758,630.162L487.758,628.062L486.33,628.062L486.33,627.198L488.79,627.198L488.79,630.846C488.47,630.974 488.114,631.08 487.722,631.164C487.33,631.248 486.866,631.29 486.33,631.29Z" style="fill:rgb(33,55,53);fill-rule:nonzero;"/>
                    </g>
                    <g transform="matrix(1.00652,0.379845,-0.379845,1.00652,9180.6,5551.61)">
                        <path d="M266.26,347.691C272.188,333.28 283.938,340.797 282.995,352.073C281.7,367.554 261.276,367.614 266.26,347.691Z" style="fill:rgb(120,142,120);"/>
                    </g>
                    <g transform="matrix(1.45455,0,0,1.45455,9244.34,5956.27)">
                        <path d="M87.581,28.701C81.046,28.701 74.402,30.427 67.213,33.664L70.59,42.62C75.6,40.246 80.937,38.736 85.73,38.736C91.938,38.736 95.641,41.217 95.641,46.181L95.641,48.339C93.899,48.231 92.047,48.123 89.542,48.123C74.729,48.123 64.926,54.165 64.926,65.171C64.926,73.695 71.243,78.658 80.175,78.658C88.126,78.658 93.899,75.529 97.493,70.458L99.671,77.687L107.622,77.687L107.622,46.612C107.622,34.959 99.998,28.701 87.581,28.701ZM83.66,69.81C79.303,69.81 76.689,67.76 76.689,63.984C76.689,58.697 81.7,55.676 90.304,55.676C92.483,55.676 94.008,55.784 95.968,55.999C95.75,64.739 90.631,69.81 83.66,69.81Z" style="fill:rgb(120,142,120);fill-rule:nonzero;"/>
                    </g>
                    <g transform="matrix(1.45455,0,0,1.45455,9241.31,5956.27)">
                        <path d="M171.685,29.564L164.17,50.928C163.516,52.762 162.863,54.705 162.318,56.863C161.447,54.705 160.576,52.762 159.486,50.82L150.01,31.938L147.505,31.938L138.029,50.82C137.049,52.762 136.178,54.597 135.306,56.755C134.762,54.705 134.217,52.87 133.564,50.928L126.048,29.564L113.414,29.564L113.414,29.888L131.603,78.119L135.197,78.119L148.812,51.252L162.318,78.119L166.022,78.119L184.211,29.888L184.211,29.564L171.685,29.564Z" style="fill:rgb(120,142,120);fill-rule:nonzero;"/>
                    </g>
                    <g transform="matrix(1.09824,0,0,1.09824,6555.23,4282.19)">
                        <path d="M2642.06,1627.79L2631.18,1627.79L2635.57,1619.19L2642.06,1619.19L2642.06,1627.79Z" style="fill:rgb(200,166,130);"/>
                    </g>
                    <g transform="matrix(1.09824,0,0,1.09824,6555.23,4282.19)">
                        <path d="M2650.16,1619.19L2654.59,1627.79L2643.71,1627.79L2643.71,1619.19L2650.16,1619.19Z" style="fill:rgb(200,166,130);"/>
                    </g>
                    <g transform="matrix(1.09824,0,0,1.09824,6555.23,4282.19)">
                        <path d="M2643.71,1606.67L2649.31,1617.55L2643.71,1617.55L2643.71,1606.67Z" style="fill:rgb(200,166,130);"/>
                    </g>
                    <g transform="matrix(1.09824,0,0,1.09824,6555.23,4282.19)">
                        <path d="M2636.41,1617.55L2642.06,1606.49L2642.06,1617.55L2636.41,1617.55Z" style="fill:rgb(200,166,130);"/>
                    </g>
                </g>
            </g>
        </g>
    </g>
</svg>
